<svg width="168" height="45" viewBox="0 0 168 45" fill="none" xmlns="http://www.w3.org/2000/svg">
<g clip-path="url(#clip0)">
<path d="M22.2607 24.6935C22.2607 24.6935 19.8983 29.7588 20.4435 35.8191C20.4435 35.8191 17.0362 27.7236 6.63277 26.9095C6.63277 26.9095 16.8091 32.201 18.7171 41.5176L0 22.8392L22.9421 0C24.3505 3.52764 26.9854 12.8894 22.2607 24.6935Z" fill="#0061FF"/>
<path d="M33.8908 15.9648C33.8908 15.9648 34.3905 24.603 30.7107 29.8492C27.0309 35.0954 24.5322 37.5376 23.4873 41.3366C23.4873 41.3366 23.0784 36.407 26.7583 28.7638C29.8475 22.3417 31.8919 12.3015 27.3943 3.43713L46.9292 22.8844L24.6685 45.0452C25.1228 43.6884 26.304 41.3819 29.3478 37.9899C34.6177 32.02 37.9795 27.0452 33.8908 15.9648Z" fill="#0061FF"/>
<path d="M63.7382 25.1005C63.7382 24.3769 63.4657 23.789 62.9205 23.3819C62.3753 22.9749 61.3759 22.5678 59.9221 22.1608C58.4684 21.7538 57.3326 21.3015 56.4694 20.804C54.834 19.8543 54.0162 18.5879 54.0162 17.0503C54.0162 15.6935 54.6068 14.5628 55.788 13.7035C56.9692 12.8442 58.5138 12.392 60.3764 12.392C61.603 12.392 62.7388 12.6181 63.7382 13.0251C64.7377 13.4774 65.4646 14.0653 66.0552 14.8794C66.6003 15.6935 66.8729 16.5528 66.8729 17.5477H63.7837C63.7837 16.6884 63.5111 15.9648 62.9205 15.4673C62.3299 14.9699 61.5122 14.7437 60.4218 14.7437C59.4224 14.7437 58.6046 14.9699 58.0595 15.3769C57.5143 15.7839 57.1963 16.3719 57.1963 17.0955C57.1963 17.7287 57.5143 18.2261 58.1049 18.6332C58.6955 19.0402 59.695 19.4472 61.1033 19.8543C62.5116 20.2613 63.6019 20.6683 64.4651 21.1658C65.3283 21.6633 65.9189 22.2513 66.3277 22.8844C66.7366 23.5176 66.9183 24.2864 66.9183 25.1457C66.9183 26.5477 66.3277 27.6784 65.192 28.4925C64.0562 29.3065 62.5116 29.7136 60.5127 29.7136C59.1952 29.7136 58.0141 29.4874 56.9237 29.0352C55.8334 28.5829 54.9702 27.9498 54.3797 27.1809C53.7891 26.3668 53.4711 25.4623 53.4711 24.4221H56.6057C56.6057 25.3719 56.9237 26.0955 57.6052 26.6382C58.2866 27.1809 59.2407 27.407 60.5127 27.407C61.603 27.407 62.4208 27.1809 62.9659 26.7739C63.4657 26.3216 63.7382 25.7789 63.7382 25.1005Z" fill="#0061FF"/>
<path d="M80.093 21.8895H72.7333V27.0452H81.365V29.397H69.6441V12.5729H81.2742V14.9246H72.7333V19.5829H80.093V21.8895Z" fill="#0061FF"/>
<path d="M87.907 12.5729L93.086 25.4623L98.265 12.5729H102.308V29.397H99.219V23.8794L99.537 16.4623L94.2217 29.397H91.9957L86.7258 16.4623L87.0438 23.8794V29.397H83.9546V12.5729H87.907Z" fill="#0061FF"/>
<path d="M105.988 29.397V12.5729H112.121C114.165 12.5729 115.71 12.9347 116.755 13.7035C117.8 14.4724 118.345 15.603 118.345 17.0955C118.345 17.8643 118.118 18.5427 117.664 19.1759C117.209 19.8091 116.573 20.2613 115.71 20.6231C116.664 20.8493 117.436 21.3467 117.982 22.0251C118.527 22.7035 118.754 23.5176 118.754 24.4673C118.754 26.0503 118.209 27.2714 117.118 28.0854C116.028 28.9447 114.484 29.3518 112.485 29.3518H105.988V29.397ZM109.123 19.6734H112.167C113.121 19.6734 113.893 19.4472 114.438 19.0402C114.983 18.6332 115.256 18.0452 115.256 17.2764C115.256 16.4623 114.983 15.8292 114.483 15.4673C113.984 15.1055 113.211 14.9246 112.121 14.9246H109.077V19.6734H109.123ZM109.123 21.8442V27.0905H112.575C113.575 27.0905 114.302 26.8643 114.847 26.4121C115.392 25.9598 115.665 25.3266 115.665 24.5126C115.665 22.7488 114.711 21.8895 112.803 21.8442H109.123Z" fill="#0061FF"/>
<path d="M128.521 22.9297H125.023V29.397H121.889V12.5729H128.203C130.293 12.5729 131.883 13.0251 133.019 13.8844C134.155 14.7437 134.7 16.0101 134.7 17.6834C134.7 18.8141 134.427 19.7638 133.837 20.5327C133.246 21.3015 132.428 21.8895 131.429 22.2965L135.472 29.3065V29.397H132.11L128.521 22.9297ZM125.023 20.5779H128.249C129.294 20.5779 130.111 20.3518 130.702 19.8543C131.293 19.3568 131.611 18.6784 131.611 17.8191C131.611 16.9146 131.338 16.2362 130.793 15.7387C130.248 15.2412 129.43 14.9699 128.34 14.9699H125.069V20.5779H125.023Z" fill="#0061FF"/>
<path d="M147.693 25.5075H140.742L139.288 29.4422H136.063L142.832 12.618H145.648L152.418 29.3969H149.147L147.693 25.5075ZM141.651 23.1557H146.875L144.286 16.1909L141.651 23.1557Z" fill="#0061FF"/>
<path d="M161.049 22.9297H157.551V29.397H154.462V12.5729H160.777C162.866 12.5729 164.456 13.0251 165.592 13.8844C166.728 14.7437 167.273 16.0101 167.273 17.6834C167.273 18.8141 167.001 19.7638 166.41 20.5327C165.819 21.3015 165.002 21.8895 164.002 22.2965L168.045 29.3065V29.397H164.684L161.049 22.9297ZM157.597 20.5779H160.822C161.867 20.5779 162.685 20.3518 163.275 19.8543C163.866 19.3568 164.184 18.6784 164.184 17.8191C164.184 16.9146 163.911 16.2362 163.366 15.7387C162.821 15.2412 162.003 14.9699 160.913 14.9699H157.642V20.5779H157.597Z" fill="#0061FF"/>
</g>
<defs>
<clipPath id="clip0">
<rect width="168" height="45" fill="#0061FF"/>
</clipPath>
</defs>
</svg>
